<?xml version="1.0" ?><!DOCTYPE svg  PUBLIC '-//W3C//DTD SVG 1.1//EN'  'http://www.w3.org/Graphics/SVG/1.1/DTD/svg11.dtd'><svg enable-background="new 0 0 512 512" height="512px" id="Layer_1" version="1.1" viewBox="0 0 512 512" width="512px" xml:space="preserve" xmlns="http://www.w3.org/2000/svg" xmlns:xlink="http://www.w3.org/1999/xlink"><g id="instagram"><path d="M254.5,16.5c-131.996,0-239,107.004-239,239s107.004,239,239,239s239-107.004,239-239   S386.496,16.5,254.5,16.5z M412.892,413.892C370.584,456.2,314.333,479.5,254.5,479.5c-59.833,0-116.084-23.3-158.392-65.608   C53.8,371.584,30.5,315.333,30.5,255.5c0-59.833,23.3-116.084,65.608-158.392C138.416,54.8,194.667,31.5,254.5,31.5   c59.833,0,116.084,23.3,158.392,65.608C455.2,139.416,478.5,195.667,478.5,255.5C478.5,315.333,455.2,371.584,412.892,413.892z" fill="#2A527A"/><path clip-rule="evenodd" d="M171.864,142.5h168.008c15.961,0,28.628,12.612,28.628,28.571   v168.012c0,15.957-12.666,29.418-28.628,29.418H171.864c-15.957,0-29.364-13.46-29.364-29.418V171.071   C142.5,155.112,155.907,142.5,171.864,142.5L171.864,142.5z M307.508,167.5c-5.6,0-10.008,4.25-10.008,9.847v24.358   c0,5.597,4.408,9.795,10.008,9.795h25.548c5.6,0,10.444-4.198,10.444-9.795v-24.358c0-5.597-4.844-9.847-10.444-9.847H307.508   L307.508,167.5z M343.5,237.5h-20.053c1.879,6,2.896,12.728,2.896,19.469c0,37.596-31.458,68.107-70.259,68.107   c-38.803,0-70.257-30.53-70.257-68.126c0-6.741,1.015-13.45,2.898-19.45H167.5v95.627c0,4.944,4.51,9.373,9.451,9.373h157.402   c4.945,0,9.147-4.429,9.147-9.373V237.5L343.5,237.5z M256.084,210.6c-25.071,0-45.396,19.693-45.396,43.987   s20.325,43.987,45.396,43.987c25.073,0,45.396-19.693,45.396-43.987S281.157,210.6,256.084,210.6z" fill="#2A527A" fill-rule="evenodd"/></g></svg>